<svg xmlns="http://www.w3.org/2000/svg" xmlns:xlink="http://www.w3.org/1999/xlink" width="180" zoomAndPan="magnify" viewBox="0 0 135 44.999999" height="60" preserveAspectRatio="xMidYMid meet" version="1.0"><defs><g/><clipPath id="a4c8ee4e7c"><path d="M 8 9 L 33.75 9 L 33.75 26 L 8 26 Z M 8 9 " clip-rule="nonzero"/></clipPath><clipPath id="9c12712067"><path d="M 7 16 L 33.75 16 L 33.75 35.066406 L 7 35.066406 Z M 7 16 " clip-rule="nonzero"/></clipPath></defs><path fill="#ffffff" d="M 19.058594 10.050781 C 21.738281 10.050781 24.183594 10.808594 26.390625 12.328125 L 28.628906 10.46875 C 27.960938 9.910156 27.246094 9.414062 26.488281 8.984375 C 25.730469 8.554688 24.941406 8.191406 24.121094 7.902344 C 23.296875 7.613281 22.457031 7.398438 21.597656 7.257812 C 20.738281 7.121094 19.871094 7.058594 19 7.070312 C 18.128906 7.085938 17.265625 7.179688 16.410156 7.347656 C 15.554688 7.515625 14.722656 7.757812 13.910156 8.078125 C 13.101562 8.394531 12.324219 8.78125 11.582031 9.238281 C 10.839844 9.695312 10.140625 10.210938 9.492188 10.792969 C 8.84375 11.371094 8.25 12.007812 7.710938 12.691406 C 7.175781 13.378906 6.703125 14.105469 6.296875 14.878906 C 5.890625 15.648438 5.554688 16.449219 5.289062 17.28125 C 5.027344 18.109375 4.835938 18.957031 4.722656 19.820312 C 4.613281 20.683594 4.578125 21.550781 4.617188 22.421875 C 4.660156 23.292969 4.777344 24.152344 4.972656 25.003906 C 5.167969 25.851562 5.4375 26.675781 5.78125 27.476562 C 6.125 28.277344 6.535156 29.042969 7.015625 29.769531 L 8.007812 29.769531 C 7.40625 28.789062 6.945312 27.746094 6.625 26.640625 C 6.300781 25.535156 6.128906 24.40625 6.109375 23.257812 C 6.085938 22.105469 6.21875 20.972656 6.496094 19.855469 C 6.777344 18.742188 7.199219 17.679688 7.761719 16.675781 C 8.324219 15.671875 9.007812 14.761719 9.816406 13.9375 C 10.621094 13.117188 11.519531 12.414062 12.511719 11.832031 C 13.503906 11.25 14.554688 10.808594 15.667969 10.507812 C 16.777344 10.207031 17.90625 10.054688 19.058594 10.050781 Z M 19.058594 10.050781 " fill-opacity="1" fill-rule="nonzero"/><g clip-path="url(#a4c8ee4e7c)"><path fill="#ffffff" d="M 8.8125 17.011719 L 16.835938 17.011719 L 19.617188 19.664062 L 31.714844 9.570312 L 33.71875 9.441406 L 19.546875 25.417969 C 19.386719 25.597656 19.1875 25.695312 18.949219 25.707031 C 18.710938 25.722656 18.5 25.648438 18.320312 25.488281 Z M 8.8125 17.011719 " fill-opacity="1" fill-rule="nonzero"/></g><g clip-path="url(#9c12712067)"><path fill="#ffffff" d="M 32.34375 16.5625 L 29.917969 16.5625 C 29.714844 16.566406 29.535156 16.625 29.375 16.75 C 29.214844 16.871094 29.105469 17.027344 29.050781 17.222656 L 28.140625 20.441406 L 25.714844 20.441406 L 19.847656 27.117188 C 19.753906 27.226562 19.640625 27.3125 19.507812 27.378906 C 19.378906 27.441406 19.238281 27.480469 19.09375 27.488281 C 18.949219 27.496094 18.808594 27.476562 18.671875 27.429688 C 18.53125 27.382812 18.410156 27.3125 18.300781 27.214844 L 10.65625 20.441406 L 8.410156 20.441406 C 8.335938 20.441406 8.269531 20.457031 8.203125 20.488281 C 8.140625 20.523438 8.085938 20.570312 8.042969 20.628906 C 8.003906 20.6875 7.976562 20.753906 7.964844 20.824219 C 7.957031 20.898438 7.964844 20.96875 7.988281 21.035156 L 10.960938 29.511719 C 11.03125 29.71875 11.171875 29.816406 11.390625 29.8125 L 24.617188 29.8125 C 24.859375 29.8125 25.066406 29.898438 25.238281 30.074219 C 25.410156 30.246094 25.496094 30.453125 25.496094 30.695312 C 25.496094 30.9375 25.410156 31.148438 25.238281 31.320312 C 25.066406 31.492188 24.859375 31.578125 24.617188 31.578125 L 12.785156 31.578125 C 12.65625 31.570312 12.53125 31.59375 12.414062 31.636719 C 12.292969 31.683594 12.1875 31.75 12.097656 31.839844 C 12.003906 31.925781 11.933594 32.03125 11.882812 32.148438 C 11.832031 32.265625 11.808594 32.386719 11.808594 32.515625 C 11.808594 32.644531 11.832031 32.765625 11.882812 32.882812 C 11.933594 33 12.003906 33.101562 12.097656 33.191406 C 12.1875 33.28125 12.292969 33.347656 12.414062 33.390625 C 12.53125 33.4375 12.65625 33.457031 12.785156 33.453125 L 14.167969 33.453125 C 14.160156 33.519531 14.15625 33.582031 14.15625 33.648438 C 14.15625 33.835938 14.191406 34.015625 14.261719 34.191406 C 14.335938 34.363281 14.4375 34.515625 14.570312 34.648438 C 14.703125 34.78125 14.855469 34.882812 15.027344 34.957031 C 15.203125 35.027344 15.382812 35.0625 15.570312 35.0625 C 15.757812 35.0625 15.9375 35.027344 16.113281 34.957031 C 16.285156 34.882812 16.4375 34.78125 16.570312 34.648438 C 16.703125 34.515625 16.804688 34.363281 16.878906 34.191406 C 16.949219 34.015625 16.984375 33.835938 16.984375 33.648438 C 16.984375 33.582031 16.980469 33.519531 16.972656 33.453125 L 21.414062 33.453125 C 21.40625 33.519531 21.402344 33.582031 21.402344 33.648438 C 21.402344 33.835938 21.4375 34.015625 21.507812 34.1875 C 21.582031 34.363281 21.683594 34.515625 21.816406 34.648438 C 21.949219 34.78125 22.101562 34.882812 22.273438 34.957031 C 22.449219 35.027344 22.628906 35.0625 22.816406 35.0625 C 23.003906 35.0625 23.183594 35.027344 23.359375 34.957031 C 23.53125 34.882812 23.683594 34.78125 23.816406 34.648438 C 23.949219 34.515625 24.050781 34.363281 24.125 34.1875 C 24.195312 34.015625 24.230469 33.835938 24.230469 33.648438 C 24.230469 33.582031 24.226562 33.515625 24.214844 33.453125 L 25.253906 33.453125 C 25.578125 33.453125 25.867188 33.355469 26.128906 33.160156 C 26.386719 32.964844 26.5625 32.710938 26.648438 32.398438 L 30.601562 18.375 L 32.375 18.375 C 32.496094 18.375 32.617188 18.351562 32.726562 18.300781 C 32.839844 18.253906 32.941406 18.1875 33.027344 18.097656 C 33.109375 18.011719 33.175781 17.910156 33.21875 17.796875 C 33.265625 17.679688 33.285156 17.5625 33.28125 17.441406 C 33.265625 17.191406 33.167969 16.984375 32.988281 16.8125 C 32.804688 16.644531 32.589844 16.5625 32.34375 16.5625 Z M 32.34375 16.5625 " fill-opacity="1" fill-rule="nonzero"/></g><g fill="#ffffff" fill-opacity="1"><g transform="translate(36.148821, 28.77535)"><g><path d="M 1.261719 -3.390625 C 0.824219 -2.75 0.609375 -2.128906 0.609375 -1.542969 C 0.609375 -0.371094 1.375 0.214844 2.894531 0.214844 C 4.753906 0.214844 6.3125 -0.347656 7.550781 -1.476562 C 8.644531 -2.457031 9.183594 -3.628906 9.183594 -5.003906 C 9.183594 -6.433594 8.453125 -7.496094 6.839844 -8.578125 C 5.929688 -9.183594 5.375 -9.566406 5.171875 -9.738281 C 4.644531 -10.175781 4.371094 -10.628906 4.371094 -11.101562 C 4.371094 -12.003906 5.25 -12.589844 6.726562 -12.589844 C 7.394531 -12.589844 8.023438 -12.464844 8.644531 -12.214844 C 9.140625 -12.949219 9.386719 -13.625 9.386719 -14.222656 C 9.386719 -15.179688 8.722656 -15.699219 7.496094 -15.699219 C 5.433594 -15.699219 3.71875 -15.011719 2.355469 -13.625 C 1.453125 -12.734375 0.933594 -11.515625 0.933594 -10.34375 C 0.933594 -8.429688 2.105469 -7.652344 3.832031 -6.492188 C 4.53125 -6.027344 4.96875 -5.726562 5.148438 -5.566406 C 5.625 -5.183594 5.859375 -4.777344 5.859375 -4.351562 C 5.859375 -3.402344 5.003906 -2.785156 3.550781 -2.785156 C 2.75 -2.785156 1.984375 -2.988281 1.261719 -3.390625 Z M 1.261719 -3.390625 "/></g></g></g><g fill="#ffffff" fill-opacity="1"><g transform="translate(46.289408, 28.77535)"><g><path d="M 12.566406 -0.609375 C 12.195312 -1.226562 12.003906 -2.320312 12.003906 -3.875 C 12.003906 -4.25 12.011719 -4.765625 12.046875 -5.433594 C 12.070312 -6.097656 12.082031 -6.59375 12.082031 -6.898438 C 12.082031 -9.554688 10.75 -11 8.316406 -11 C 7.066406 -11 5.871094 -10.503906 4.746094 -9.511719 C 4.789062 -10.773438 4.878906 -12.453125 4.925781 -13.277344 C 4.9375 -13.671875 4.949219 -13.941406 4.949219 -14.085938 C 4.949219 -15.40625 4.554688 -15.890625 3.390625 -15.890625 C 2.601562 -15.890625 1.757812 -15.675781 0.84375 -15.257812 C 1.082031 -14.808594 1.25 -14.164062 1.328125 -13.320312 C 1.410156 -12.476562 1.441406 -11.316406 1.441406 -9.839844 C 1.441406 -8.292969 1.398438 -6.636719 1.320312 -4.847656 C 1.238281 -3.054688 1.195312 -2.039062 1.195312 -1.804688 C 1.195312 -0.449219 1.53125 0 2.714844 0 C 3.539062 0 4.371094 -0.203125 5.230469 -0.609375 C 4.847656 -1.398438 4.65625 -2.917969 4.65625 -5.160156 C 4.65625 -6.164062 4.6875 -7 4.746094 -7.6875 C 5.601562 -8.136719 6.3125 -8.363281 6.863281 -8.363281 C 8.183594 -8.363281 8.597656 -7.503906 8.597656 -5.375 C 8.597656 -4.824219 8.578125 -4.136719 8.53125 -3.3125 C 8.476562 -2.492188 8.453125 -1.949219 8.453125 -1.679688 C 8.453125 -0.449219 8.847656 0 10.019531 0 C 10.929688 0 11.777344 -0.203125 12.566406 -0.609375 Z M 12.566406 -0.609375 "/></g></g></g><g fill="#ffffff" fill-opacity="1"><g transform="translate(59.528509, 28.77535)"><g><path d="M 12.972656 -5.679688 C 12.972656 -8.824219 10.535156 -11.101562 7.078125 -11.101562 C 3.347656 -11.101562 0.699219 -8.644531 0.699219 -5.273438 C 0.699219 -2.027344 3.144531 0.257812 6.707031 0.257812 C 8.734375 0.257812 10.367188 -0.460938 11.609375 -1.914062 C 12.519531 -2.988281 12.972656 -4.25 12.972656 -5.679688 Z M 4.136719 -5.351562 C 4.136719 -7.109375 5.25 -8.273438 6.863281 -8.273438 C 8.484375 -8.273438 9.578125 -7.167969 9.578125 -5.464844 C 9.578125 -3.808594 8.394531 -2.613281 6.863281 -2.613281 C 5.230469 -2.613281 4.136719 -3.71875 4.136719 -5.351562 Z M 4.136719 -5.351562 "/></g></g></g><g fill="#ffffff" fill-opacity="1"><g transform="translate(73.195768, 28.77535)"><g><path d="M 4.765625 -9.535156 C 4.644531 -10.480469 4.011719 -10.910156 2.785156 -10.910156 C 2.199219 -10.910156 1.601562 -10.808594 0.980469 -10.605469 C 1.464844 -9.535156 1.566406 -8.171875 1.566406 -5.816406 C 1.566406 -2.976562 1.441406 -0.179688 1.339844 1.429688 C 1.285156 2.230469 1.261719 2.726562 1.261719 2.917969 C 1.261719 4.214844 1.632812 4.699219 2.804688 4.699219 C 3.582031 4.699219 4.394531 4.496094 5.25 4.089844 C 4.867188 3.359375 4.675781 1.859375 4.675781 -0.394531 L 4.675781 -0.824219 C 5.476562 -0.269531 6.378906 0 7.359375 0 C 9.195312 0 10.730469 -0.84375 11.957031 -2.546875 C 12.542969 -3.359375 12.914062 -4.609375 12.914062 -5.882812 C 12.914062 -8.859375 10.976562 -10.929688 8.226562 -10.929688 C 6.917969 -10.929688 5.769531 -10.46875 4.765625 -9.535156 Z M 4.765625 -3.414062 C 4.765625 -4.460938 4.777344 -5.816406 4.8125 -7.472656 C 5.566406 -7.980469 6.300781 -8.226562 6.988281 -8.226562 C 8.429688 -8.226562 9.445312 -7.15625 9.445312 -5.578125 C 9.445312 -3.921875 8.304688 -2.738281 6.726562 -2.738281 C 6.050781 -2.738281 5.398438 -2.964844 4.765625 -3.414062 Z M 4.765625 -3.414062 "/></g></g></g><g fill="#ffffff" fill-opacity="1"><g transform="translate(86.795423, 28.77535)"><g><path d="M 11.324219 -7.527344 C 11.855469 -6.851562 11.980469 -6.097656 11.980469 -4.878906 C 11.980469 -4.371094 11.945312 -3.867188 11.890625 -3.359375 C 11.191406 -3.144531 10.480469 -3.03125 9.769531 -3.03125 C 6.785156 -3.03125 4.902344 -4.824219 4.902344 -7.617188 C 4.902344 -10.546875 7.132812 -12.609375 10.34375 -12.609375 C 11.078125 -12.609375 11.8125 -12.429688 12.566406 -12.082031 C 13.488281 -13.570312 13.660156 -14.886719 12.679688 -15.4375 C 12.238281 -15.6875 11.515625 -15.8125 10.535156 -15.8125 C 7.957031 -15.8125 5.554688 -14.953125 3.785156 -13.457031 C 1.746094 -11.71875 0.722656 -9.601562 0.722656 -7.101562 C 0.722656 -2.726562 4.203125 0.238281 9.625 0.238281 C 12.011719 0.238281 13.511719 -0.113281 14.503906 -1.058594 C 15.484375 -1.996094 15.84375 -3.359375 15.84375 -5.554688 C 15.84375 -7.484375 15.328125 -8.25 13.871094 -8.25 C 13.140625 -8.25 12.296875 -8.011719 11.324219 -7.527344 Z M 11.324219 -7.527344 "/></g></g></g><g fill="#ffffff" fill-opacity="1"><g transform="translate(103.335848, 28.77535)"><g><path d="M 5.488281 -0.609375 C 5.003906 -1.613281 4.878906 -3.371094 4.878906 -6.535156 C 4.878906 -7.945312 4.925781 -9.5 5.003906 -11.203125 C 5.082031 -12.890625 5.117188 -13.871094 5.117188 -14.15625 C 5.117188 -15.40625 4.675781 -15.890625 3.550781 -15.890625 C 2.726562 -15.890625 1.882812 -15.675781 1.003906 -15.257812 C 1.488281 -14.347656 1.632812 -12.882812 1.632812 -10.402344 C 1.632812 -8.769531 1.589844 -7.03125 1.511719 -5.183594 C 1.421875 -3.324219 1.375 -2.289062 1.375 -2.074219 C 1.375 -0.496094 1.691406 0 2.941406 0 C 3.664062 0 4.507812 -0.203125 5.488281 -0.609375 Z M 5.488281 -0.609375 "/></g></g></g><g fill="#ffffff" fill-opacity="1"><g transform="translate(109.848359, 28.77535)"><g><path d="M 12.386719 -0.652344 C 12.011719 -1.339844 11.820312 -2.636719 11.820312 -4.53125 C 11.820312 -5.351562 11.84375 -6.265625 11.890625 -7.257812 C 11.933594 -8.25 11.957031 -8.824219 11.957031 -8.992188 C 11.957031 -10.402344 11.585938 -10.910156 10.367188 -10.910156 C 9.65625 -10.910156 8.800781 -10.683594 7.796875 -10.234375 C 8.25 -9.433594 8.476562 -7.765625 8.476562 -5.230469 C 8.476562 -4.949219 8.464844 -4.496094 8.429688 -3.898438 C 7.753906 -3.007812 7.007812 -2.570312 6.210938 -2.570312 C 4.992188 -2.570312 4.621094 -3.371094 4.621094 -5.398438 C 4.621094 -5.929688 4.65625 -6.625 4.710938 -7.515625 C 4.765625 -8.394531 4.789062 -9.015625 4.789062 -9.386719 C 4.789062 -10.46875 4.328125 -10.910156 3.199219 -10.910156 C 2.390625 -10.910156 1.566406 -10.707031 0.722656 -10.300781 C 1.082031 -9.703125 1.261719 -8.632812 1.261719 -7.101562 C 1.261719 -6.695312 1.238281 -6.128906 1.207031 -5.410156 C 1.171875 -4.6875 1.148438 -4.179688 1.148438 -3.875 C 1.148438 -1.171875 2.433594 0.238281 4.835938 0.238281 C 6.332031 0.238281 7.574219 -0.441406 8.554688 -1.804688 L 8.554688 -1.542969 C 8.554688 -0.429688 8.96875 0.0234375 10.042969 0.0234375 C 10.738281 0.0234375 11.515625 -0.203125 12.386719 -0.652344 Z M 12.386719 -0.652344 "/></g></g></g><g fill="#ffffff" fill-opacity="1"><g transform="translate(123.04239, 28.77535)"><g><path d="M 5.441406 -10.390625 C 5.542969 -11.617188 5.601562 -12.296875 5.601562 -12.40625 C 5.601562 -13.445312 5.117188 -13.917969 4.066406 -13.917969 C 3.382812 -13.917969 2.613281 -13.714844 1.746094 -13.296875 C 2.050781 -12.699219 2.199219 -11.890625 2.199219 -10.886719 C 2.199219 -10.832031 2.199219 -10.730469 2.1875 -10.582031 C 2.175781 -10.4375 2.175781 -10.335938 2.175781 -10.253906 C 1.734375 -10.222656 1.441406 -10.210938 1.285156 -10.210938 C 0.957031 -10.210938 0.675781 -10.234375 0.441406 -10.277344 C 0.179688 -9.726562 0.046875 -9.273438 0.046875 -8.925781 C 0.046875 -8.304688 0.382812 -8.082031 1.148438 -8.082031 C 1.410156 -8.082031 1.703125 -8.101562 2.050781 -8.148438 C 2.027344 -7.515625 1.984375 -6.671875 1.90625 -5.625 C 1.824219 -4.5625 1.78125 -3.832031 1.78125 -3.414062 C 1.78125 -1.035156 2.851562 0.113281 5.070312 0.113281 C 6.816406 0.113281 7.820312 -0.53125 7.820312 -1.519531 C 7.820312 -1.914062 7.664062 -2.320312 7.335938 -2.738281 C 7.042969 -2.511719 6.75 -2.402344 6.445312 -2.402344 C 5.578125 -2.402344 5.140625 -3.199219 5.140625 -4.8125 C 5.140625 -5.65625 5.195312 -6.796875 5.308594 -8.226562 C 5.734375 -8.238281 6.546875 -8.292969 6.636719 -8.292969 C 7.167969 -8.292969 7.585938 -8.238281 7.878906 -8.125 C 8.273438 -8.722656 8.476562 -9.242188 8.476562 -9.691406 C 8.476562 -10.289062 8.183594 -10.515625 7.472656 -10.515625 C 7.300781 -10.515625 6.773438 -10.480469 6.320312 -10.445312 C 6.019531 -10.425781 5.726562 -10.402344 5.441406 -10.390625 Z M 5.441406 -10.390625 "/></g></g></g></svg>